<svg width="122.87999999999998" height="108.31" xmlns="http://www.w3.org/2000/svg">
 <defs>
  <style>.cls-1{fill-rule:evenodd;}</style>
 </defs>
 <title>text-message</title>
 <g>
  <title>background</title>
  <rect fill="none" id="canvas_background" height="514" width="514" y="-1" x="-1"/>
 </g>
 <g>
  <title>Layer 1</title>
  <path id="svg_1" d="m51.46,93.86c12.9,12.44 31.14,16.2 49.38,8.43l15.31,6l-5.07,-12.06c17,-13.63 14,-32.35 1.44,-45.11a44.05,44.05 0 0 1 -4.87,13.88a51.25,51.25 0 0 1 -14.07,16a62.69,62.69 0 0 1 -19.66,10a70.44,70.44 0 0 1 -22.46,2.9l0,-0.04zm-19.88,-39.79a3.11,3.11 0 0 1 0,-6.21l29.93,0a3.11,3.11 0 0 1 0,6.21l-29.93,0zm29.93,-17.22a3.11,3.11 0 0 1 0,-6.21l12.83,0a3.11,3.11 0 0 1 0,6.21l-12.83,0zm-20.06,-36.85l0,0c27.36,0.47 40.35,5.62 49.64,13.59c9.49,8.13 15.17,19.2 14.82,31.27l0,0c-0.37,12.14 -6.72,22.85 -16.69,30.42c-9.78,7.42 -23.07,11.79 -37.56,11.37a63.91,63.91 0 0 1 -11.66,-1.41a60.48,60.48 0 0 1 -9.87,-3l-23.44,9.2l7.83,-18.63a44,44 0 0 1 -10.52,-13.31a36.67,36.67 0 0 1 -4,-17.71c0.38,-12.09 6.73,-22.79 16.7,-30.39c9.78,-7.4 23.08,-11.8 37.56,-11.4l-12.81,0zm19.91,43.03l-0.05,0c-20.31,-37.2 -32.17,-33.31 -40.87,-26.71c-8.52,6.46 -13.94,15.52 -14.24,25.68a30.49,30.49 0 0 0 3.35,14.71a38.76,38.76 0 0 0 10.62,12.76l1.83,1.46l-3.92,9.37l12.08,-4.75l1.17,0.5a55.08,55.08 0 0 0 9.91,3.13a58.52,58.52 0 0 0 10.59,1.29c13,0.38 25,-3.51 33.66,-10.12c8.51,-6.46 13.93,-15.51 14.24,-25.63l0,0c0.29,-10.11 -4.56,-19.45 -12.66,-26.4c-8.28,-7.13 -19.91,-11.71 -32.92,-12.11l7.21,36.82z" class="cls-1"/>
  <path stroke="#FF0000" transform="rotate(-40 60.77550888061521,54.48554229736326) " id="svg_2" d="m-21.892313,50.715056l165.335638,0l0,7.540976l-165.335638,0l0,-7.540976z" stroke-width="0.001" fill="#bf0000"/>
 </g>
</svg>